<?xml version="1.0" encoding="UTF-8" standalone="no"?>
<!-- Created with Inkscape (http://www.inkscape.org/) -->
<svg
   xmlns:svg="http://www.w3.org/2000/svg"
   xmlns="http://www.w3.org/2000/svg"
   version="1.0"
   width="720"
   height="505"
   viewBox="0 0 576 432"
   id="svg1">
  <defs
     id="defs111" />
  <g
     transform="matrix(1.061979,0,0,1.061979,-19.5793,-28.69041)"
     id="g12984">
    <polygon
       points="72,388.8 72,43.2 518.4,43.2 518.4,388.8 72,388.8 "
       style="fill:#ffffff;stroke:none;stroke-width:3;stroke-linecap:square;stroke-linejoin:miter;stroke-miterlimit:4;stroke-dasharray:none"
       id="polygon7" />
    <g
       transform="translate(0,4)"
       id="xtick1">
      <text
         x="68.796875"
         y="401.79999"
         style="font-size:20px;fill:#000000;font-family:Times New Roman"
         id="text11">0</text>
    </g>
    <path
       d="M 161.28,388.8 L 161.28,43.2"
       style="fill:none;stroke:#d7d7d7;stroke-width:3;stroke-linecap:square;stroke-linejoin:miter;stroke-miterlimit:4;stroke-dasharray:none"
       id="path19" />
    <path
       d="M 161.28,388.8 L 161.28,383.8"
       style="fill:none;stroke:#000000;stroke-width:3;stroke-linecap:square;stroke-linejoin:miter;stroke-miterlimit:4;stroke-dasharray:none"
       id="path21" />
    <text
       x="156.78"
       y="405.79999"
       style="font-size:20px;fill:#000000;font-family:Times New Roman"
       id="text25">τ</text>
    <path
       d="M 250.56,388.8 L 250.56,43.2"
       style="fill:none;stroke:#d7d7d7;stroke-width:3;stroke-linecap:square;stroke-linejoin:miter;stroke-miterlimit:4;stroke-dasharray:none"
       id="path28" />
    <path
       d="M 250.56,388.8 L 250.56,383.8"
       style="fill:none;stroke:#000000;stroke-width:3;stroke-linecap:square;stroke-linejoin:miter;stroke-miterlimit:4;stroke-dasharray:none"
       id="path30" />
    <text
       x="242.06"
       y="405.79999"
       style="font-size:20px;fill:#000000;font-family:Times New Roman"
       id="text34">2τ</text>
    <path
       d="M 339.84,388.8 L 339.84,43.2"
       style="fill:none;stroke:#d7d7d7;stroke-width:3;stroke-linecap:square;stroke-linejoin:miter;stroke-miterlimit:4;stroke-dasharray:none"
       id="path37" />
    <path
       d="M 339.84,388.8 L 339.84,383.8"
       style="fill:none;stroke:#000000;stroke-width:3;stroke-linecap:square;stroke-linejoin:miter;stroke-miterlimit:4;stroke-dasharray:none"
       id="path39" />
    <text
       x="331.34"
       y="405.79999"
       style="font-size:20px;fill:#000000;font-family:Times New Roman"
       id="text43">3τ</text>
    <path
       d="M 429.12,388.8 L 429.12,43.2"
       style="fill:none;stroke:#d7d7d7;stroke-width:3;stroke-linecap:square;stroke-linejoin:miter;stroke-miterlimit:4;stroke-dasharray:none"
       id="path46" />
    <path
       d="M 429.12,388.8 L 429.12,383.8"
       style="fill:none;stroke:#000000;stroke-width:3;stroke-linecap:square;stroke-linejoin:miter;stroke-miterlimit:4;stroke-dasharray:none"
       id="path48" />
    <text
       x="420.26843"
       y="405.79999"
       style="font-size:20px;fill:#000000;font-family:Times New Roman"
       id="text52">4τ</text>
    <g
       transform="translate(0,4)"
       id="xtick6">
      <text
         x="509.89999"
         y="401.79999"
         style="font-size:20px;fill:#000000;font-family:Times New Roman"
         id="text55">5τ</text>
    </g>
    <text
       x="279.49689"
       y="425.79999"
       style="font-size:20px;fill:#000000;font-family:Times New Roman"
       id="text57">Time</text>
    <path
       d="M 72,168.84907 L 518.4,168.84907"
       style="fill:none;stroke:#d7d7d7;stroke-width:3;stroke-linecap:square;stroke-linejoin:miter;stroke-miterlimit:4;stroke-dasharray:none"
       id="path1413" />
    <path
       d="M 72,168.89912 L 77,168.89912"
       style="fill:none;stroke:#000000;stroke-width:3;stroke-linecap:square;stroke-linejoin:miter;stroke-miterlimit:4;stroke-dasharray:none"
       id="path61" />
    <path
       d="M 513.4,168.89912 L 518.4,168.89912"
       style="fill:none;stroke:#000000;stroke-width:3;stroke-linecap:square;stroke-linejoin:miter;stroke-miterlimit:4;stroke-dasharray:none"
       id="path63" />
    <text
       x="17.59375"
       y="173.89912"
       style="font-size:20px;fill:#000000;font-family:Times New Roman"
       id="text65">63.2%</text>
    <g
       id="ytick2">
      <path
         d="M 72,87.828067 L 77,87.828067"
         style="opacity:1;fill:none;stroke:#000000;stroke-width:0.5;stroke-linecap:butt;stroke-linejoin:miter"
         id="path70" />
      <path
         d="M 513.4,87.828067 L 518.4,87.828067"
         style="opacity:1;fill:none;stroke:#000000;stroke-width:0.5;stroke-linecap:butt;stroke-linejoin:miter"
         id="path72" />
      <text
         x="520.59375"
         y="92.828064"
         style="font-size:20px;fill:#000000;font-family:Times New Roman"
         id="text74">86.5%</text>
    </g>
    <path
       d="M 72,87.828067 L 518.4,87.828067"
       style="fill:none;stroke:#d7d7d7;stroke-width:3;stroke-linecap:square;stroke-linejoin:miter;stroke-miterlimit:4;stroke-dasharray:none"
       id="path68" />
    <path
       d="M 72,58.25279 L 518.4,58.25279"
       style="fill:none;stroke:#d7d7d7;stroke-width:3;stroke-linecap:square;stroke-linejoin:miter;stroke-miterlimit:4;stroke-dasharray:none"
       id="path77" />
    <path
       d="M 72,58.25279 L 77,58.25279"
       style="fill:none;stroke:#000000;stroke-width:3;stroke-linecap:square;stroke-linejoin:miter;stroke-miterlimit:4;stroke-dasharray:none"
       id="path79" />
    <path
       d="M 513.4,58.25279 L 518.4,58.25279"
       style="fill:none;stroke:#000000;stroke-width:3;stroke-linecap:square;stroke-linejoin:miter;stroke-miterlimit:4;stroke-dasharray:none"
       id="path81" />
    <text
       x="17.59375"
       y="63.252789"
       style="font-size:20px;fill:#000000;font-family:Times New Roman"
       id="text83">95.0%</text>
    <path
       d="M 72,47.118569 L 518.4,47.118569"
       style="fill:none;stroke:#d7d7d7;stroke-width:3;stroke-linecap:square;stroke-linejoin:miter;stroke-miterlimit:4;stroke-dasharray:none"
       id="path86" />
    <path
       d="M 72,47.118569 L 77,47.118569"
       style="fill:none;stroke:#000000;stroke-width:3;stroke-linecap:square;stroke-linejoin:miter;stroke-miterlimit:4;stroke-dasharray:none"
       id="path88" />
    <path
       d="M 513.4,47.118569 L 518.4,47.118569"
       style="fill:none;stroke:#000000;stroke-width:3;stroke-linecap:square;stroke-linejoin:miter;stroke-miterlimit:4;stroke-dasharray:none"
       id="path90" />
    <text
       x="520.59375"
       y="52.118568"
       style="font-size:20px;fill:#000000;font-family:Times New Roman"
       id="text92">98.2%</text>
    <path
       d="M 72,43.29118 L 518.4,43.29118"
       style="fill:none;stroke:#d7d7d7;stroke-width:3;stroke-linecap:square;stroke-linejoin:miter;stroke-miterlimit:4;stroke-dasharray:none"
       id="path95" />
    <path
       d="M 161.28,48.2 L 161.28,43.2"
       style="fill:none;stroke:#000000;stroke-width:3;stroke-linecap:square;stroke-linejoin:miter;stroke-miterlimit:4;stroke-dasharray:none"
       id="path23" />
    <path
       d="M 250.56,48.2 L 250.56,43.2"
       style="fill:none;stroke:#000000;stroke-width:3;stroke-linecap:square;stroke-linejoin:miter;stroke-miterlimit:4;stroke-dasharray:none"
       id="path32" />
    <path
       d="M 339.84,48.2 L 339.84,43.2"
       style="fill:none;stroke:#000000;stroke-width:3;stroke-linecap:square;stroke-linejoin:miter;stroke-miterlimit:4;stroke-dasharray:none"
       id="path41" />
    <path
       d="M 429.12,48.2 L 429.12,43.2"
       style="fill:none;stroke:#000000;stroke-width:3;stroke-linecap:square;stroke-linejoin:miter;stroke-miterlimit:4;stroke-dasharray:none"
       id="path50" />
    <path
       d="M 72,43.29118 L 77,43.29118"
       style="fill:none;stroke:#000000;stroke-width:3;stroke-linecap:square;stroke-linejoin:miter;stroke-miterlimit:4;stroke-dasharray:none"
       id="path97" />
    <path
       d="M 513.4,43.29118 L 518.4,43.29118"
       style="fill:none;stroke:#000000;stroke-width:0.5;stroke-linecap:butt;stroke-linejoin:miter"
       id="path99" />
    <text
       x="17.59375"
       y="48.29118"
       style="font-size:20px;fill:#000000;font-family:Times New Roman"
       id="text101">99.3%</text>
    <text
       x="-212.53905"
       y="25.093763"
       transform="matrix(0,-1,1,0,0,0)"
       style="font-size:17.75px;font-style:italic;fill:#000000;font-family:Times New Roman"
       id="text104">c</text>
    <text
       x="-224.53905"
       y="22.593763"
       transform="matrix(0,-1,1,0,0,0)"
       style="font-size:22.5px;font-style:italic;fill:#000000;font-family:Times New Roman"
       id="text106">V</text>
    <path
       d="M 72.408383,387.98323 L 72.4464,387.06462 L 72.8928,385.3379 L 73.3392,383.61978 L 73.7856,381.91024 L 74.232,380.20922 L 74.6784,378.51669 L 75.1248,376.8326 L 75.5712,375.1569 L 76.0176,373.48957 L 76.464,371.83055 L 76.9104,370.1798 L 77.3568,368.53729 L 77.8032,366.90297 L 78.2496,365.27681 L 78.696,363.65875 L 79.1424,362.04876 L 79.5888,360.4468 L 80.0352,358.85284 L 80.4816,357.26682 L 80.928,355.68871 L 81.3744,354.11847 L 81.8208,352.55607 L 82.2672,351.00146 L 82.7136,349.4546 L 83.16,347.91545 L 83.6064,346.38398 L 84.0528,344.86016 L 84.4992,343.34393 L 84.9456,341.83526 L 85.392,340.33412 L 85.8384,338.84046 L 86.2848,337.35426 L 86.7312,335.87546 L 87.1776,334.40404 L 87.624,332.93996 L 88.0704,331.48319 L 88.5168,330.03368 L 88.9632,328.59139 L 89.4096,327.15631 L 89.856,325.72838 L 90.3024,324.30757 L 90.7488,322.89384 L 91.1952,321.48717 L 91.6416,320.08752 L 92.088,318.69484 L 92.5344,317.30911 L 92.9808,315.93029 L 93.4272,314.55835 L 93.8736,313.19325 L 94.32,311.83496 L 94.7664,310.48345 L 95.2128,309.13867 L 95.6592,307.80061 L 96.1056,306.46921 L 96.552,305.14446 L 96.9984,303.82631 L 97.4448,302.51474 L 97.8912,301.20971 L 98.3376,299.91119 L 98.784,298.61914 L 99.2304,297.33354 L 99.6768,296.05435 L 100.1232,294.78154 L 100.5696,293.51508 L 101.016,292.25494 L 101.4624,291.00108 L 101.9088,289.75347 L 102.3552,288.51209 L 102.8016,287.2769 L 103.248,286.04787 L 103.6944,284.82496 L 104.1408,283.60816 L 104.5872,282.39743 L 105.0336,281.19273 L 105.48,279.99405 L 105.9264,278.80134 L 106.3728,277.61458 L 106.8192,276.43374 L 107.2656,275.25879 L 107.712,274.0897 L 108.1584,272.92644 L 108.6048,271.76898 L 109.0512,270.61729 L 109.4976,269.47135 L 109.944,268.33112 L 110.3904,267.19659 L 110.8368,266.0677 L 111.2832,264.94446 L 111.7296,263.82681 L 112.176,262.71473 L 112.6224,261.60821 L 113.0688,260.5072 L 113.5152,259.41168 L 113.9616,258.32163 L 114.408,257.23701 L 114.8544,256.1578 L 115.3008,255.08398 L 115.7472,254.01551 L 116.1936,252.95237 L 116.64,251.89453 L 117.0864,250.84197 L 117.5328,249.79466 L 117.9792,248.75257 L 118.4256,247.71568 L 118.872,246.68396 L 119.3184,245.65739 L 119.7648,244.63594 L 120.2112,243.61958 L 120.6576,242.60829 L 121.104,241.60204 L 121.5504,240.60082 L 121.9968,239.60458 L 122.4432,238.61332 L 122.8896,237.627 L 123.336,236.64559 L 123.7824,235.66909 L 124.2288,234.69745 L 124.6752,233.73066 L 125.1216,232.76869 L 125.568,231.81152 L 126.0144,230.85913 L 126.4608,229.91148 L 126.9072,228.96856 L 127.3536,228.03034 L 127.8,227.0968 L 128.2464,226.16792 L 128.6928,225.24367 L 129.1392,224.32403 L 129.5856,223.40898 L 130.032,222.49849 L 130.4784,221.59254 L 130.9248,220.69111 L 131.3712,219.79418 L 131.8176,218.90172 L 132.264,218.01371 L 132.7104,217.13013 L 133.1568,216.25096 L 133.6032,215.37617 L 134.0496,214.50574 L 134.496,213.63966 L 134.9424,212.7779 L 135.3888,211.92043 L 135.8352,211.06724 L 136.2816,210.21831 L 136.728,209.37361 L 137.1744,208.53312 L 137.6208,207.69682 L 138.0672,206.8647 L 138.5136,206.03672 L 138.96,205.21288 L 139.4064,204.39315 L 139.8528,203.5775 L 140.2992,202.76592 L 140.7456,201.95839 L 141.192,201.15488 L 141.6384,200.35539 L 142.0848,199.55988 L 142.5312,198.76834 L 142.9776,197.98075 L 143.424,197.19708 L 143.8704,196.41732 L 144.3168,195.64146 L 144.7632,194.86946 L 145.2096,194.10131 L 145.656,193.33699 L 146.1024,192.57649 L 146.5488,191.81978 L 146.9952,191.06684 L 147.4416,190.31766 L 147.888,189.57221 L 148.3344,188.83049 L 148.7808,188.09246 L 149.2272,187.35811 L 149.6736,186.62743 L 150.12,185.90039 L 150.5664,185.17697 L 151.0128,184.45717 L 151.4592,183.74095 L 151.9056,183.02831 L 152.352,182.31922 L 152.7984,181.61367 L 153.2448,180.91163 L 153.6912,180.2131 L 154.1376,179.51805 L 154.584,178.82647 L 155.0304,178.13834 L 155.4768,177.45363 L 155.9232,176.77235 L 156.3696,176.09446 L 156.816,175.41995 L 157.2624,174.74881 L 157.7088,174.08102 L 158.1552,173.41655 L 158.6016,172.7554 L 159.048,172.09755 L 159.4944,171.44298 L 159.9408,170.79167 L 160.3872,170.14361 L 160.8336,169.49878 L 161.28,168.85717 L 161.7264,168.21876 L 162.1728,167.58354 L 162.6192,166.95148 L 163.0656,166.32257 L 163.512,165.6968 L 163.9584,165.07415 L 164.4048,164.45461 L 164.8512,163.83816 L 165.2976,163.22478 L 165.744,162.61446 L 166.1904,162.00718 L 166.6368,161.40294 L 167.0832,160.80171 L 167.5296,160.20347 L 167.976,159.60822 L 168.4224,159.01594 L 168.8688,158.42661 L 169.3152,157.84023 L 169.7616,157.25676 L 170.208,156.67621 L 170.6544,156.09855 L 171.1008,155.52377 L 171.5472,154.95186 L 171.9936,154.38281 L 172.44,153.81659 L 172.8864,153.25319 L 173.3328,152.69261 L 173.7792,152.13482 L 174.2256,151.57981 L 174.672,151.02757 L 175.1184,150.47808 L 175.5648,149.93134 L 176.0112,149.38732 L 176.4576,148.84602 L 176.904,148.30741 L 177.3504,147.77149 L 177.7968,147.23825 L 178.2432,146.70766 L 178.6896,146.17972 L 179.136,145.65442 L 179.5824,145.13173 L 180.0288,144.61165 L 180.4752,144.09417 L 180.9216,143.57926 L 181.368,143.06693 L 181.8144,142.55714 L 182.2608,142.04991 L 182.7072,141.5452 L 183.1536,141.043 L 183.6,140.54332 L 184.0464,140.04612 L 184.4928,139.55141 L 184.9392,139.05916 L 185.3856,138.56937 L 185.832,138.08202 L 186.2784,137.5971 L 186.7248,137.1146 L 187.1712,136.6345 L 187.6176,136.1568 L 188.064,135.68149 L 188.5104,135.20854 L 188.9568,134.73796 L 189.4032,134.26971 L 189.8496,133.80381 L 190.296,133.34023 L 190.7424,132.87896 L 191.1888,132.41999 L 191.6352,131.96331 L 192.0816,131.50891 L 192.528,131.05677 L 192.9744,130.60689 L 193.4208,130.15926 L 193.8672,129.71385 L 194.3136,129.27067 L 194.76,128.8297 L 195.2064,128.39093 L 195.6528,127.95434 L 196.0992,127.51993 L 196.5456,127.08769 L 196.992,126.65761 L 197.4384,126.22967 L 197.8848,125.80387 L 198.3312,125.38018 L 198.7776,124.95861 L 199.224,124.53915 L 199.6704,124.12178 L 200.1168,123.70648 L 200.5632,123.29326 L 201.0096,122.8821 L 201.456,122.47299 L 201.9024,122.06593 L 202.3488,121.66089 L 202.7952,121.25787 L 203.2416,120.85686 L 203.688,120.45785 L 204.1344,120.06084 L 204.5808,119.6658 L 205.0272,119.27273 L 205.4736,118.88162 L 205.92,118.49247 L 206.3664,118.10525 L 206.8128,117.71997 L 207.2592,117.3366 L 207.7056,116.95515 L 208.152,116.5756 L 208.5984,116.19795 L 209.0448,115.82218 L 209.4912,115.44828 L 209.9376,115.07625 L 210.384,114.70607 L 210.8304,114.33774 L 211.2768,113.97125 L 211.7232,113.60658 L 212.1696,113.24373 L 212.616,112.88269 L 213.0624,112.52346 L 213.5088,112.16601 L 213.9552,111.81035 L 214.4016,111.45646 L 214.848,111.10434 L 215.2944,110.75397 L 215.7408,110.40535 L 216.1872,110.05847 L 216.6336,109.71332 L 217.08,109.36989 L 217.5264,109.02817 L 217.9728,108.68816 L 218.4192,108.34984 L 218.8656,108.01322 L 219.312,107.67827 L 219.7584,107.34498 L 220.2048,107.01337 L 220.6512,106.6834 L 221.0976,106.35509 L 221.544,106.02841 L 221.9904,105.70336 L 222.4368,105.37993 L 222.8832,105.05811 L 223.3296,104.7379 L 223.776,104.41928 L 224.2224,104.10226 L 224.6688,103.78681 L 225.1152,103.47294 L 225.5616,103.16064 L 226.008,102.84989 L 226.4544,102.54069 L 226.9008,102.23304 L 227.3472,101.92691 L 227.7936,101.62232 L 228.24,101.31925 L 228.6864,101.01768 L 229.1328,100.71762 L 229.5792,100.41906 L 230.0256,100.12198 L 230.472,99.826391 L 230.9184,99.532273 L 231.3648,99.239622 L 231.8112,98.94843 L 232.2576,98.658691 L 232.704,98.370396 L 233.1504,98.08354 L 233.5968,97.798114 L 234.0432,97.514112 L 234.4896,97.231527 L 234.936,96.95035 L 235.3824,96.670576 L 235.8288,96.392198 L 236.2752,96.115208 L 236.7216,95.839599 L 237.168,95.565365 L 237.6144,95.292499 L 238.0608,95.020994 L 238.5072,94.750842 L 238.9536,94.482039 L 239.4,94.214576 L 239.8464,93.948446 L 240.2928,93.683645 L 240.7392,93.420163 L 241.1856,93.157996 L 241.632,92.897137 L 242.0784,92.637579 L 242.5248,92.379315 L 242.9712,92.122339 L 243.4176,91.866645 L 243.864,91.612226 L 244.3104,91.359076 L 244.7568,91.107189 L 245.2032,90.856558 L 245.6496,90.607177 L 246.096,90.35904 L 246.5424,90.11214 L 246.9888,89.866472 L 247.4352,89.622029 L 247.8816,89.378805 L 248.328,89.136795 L 248.7744,88.895991 L 249.2208,88.656388 L 249.6672,88.417981 L 250.1136,88.180762 L 250.56,87.944727 L 251.0064,87.709869 L 251.4528,87.476182 L 251.8992,87.243661 L 252.3456,87.012299 L 252.792,86.782092 L 253.2384,86.553032 L 253.6848,86.325115 L 254.1312,86.098335 L 254.5776,85.872685 L 255.024,85.648162 L 255.4704,85.424758 L 255.9168,85.202468 L 256.3632,84.981287 L 256.8096,84.761209 L 257.256,84.542229 L 257.7024,84.32434 L 258.1488,84.107539 L 258.5952,83.891819 L 259.0416,83.677175 L 259.488,83.463601 L 259.9344,83.251093 L 260.3808,83.039644 L 260.8272,82.82925 L 261.2736,82.619906 L 261.72,82.411605 L 262.1664,82.204343 L 262.6128,81.998116 L 263.0592,81.792916 L 263.5056,81.58874 L 263.952,81.385583 L 264.3984,81.183439 L 264.8448,80.982302 L 265.2912,80.78217 L 265.7376,80.583035 L 266.184,80.384893 L 266.6304,80.18774 L 267.0768,79.99157 L 267.5232,79.796378 L 267.9696,79.60216 L 268.416,79.408911 L 268.8624,79.216625 L 269.3088,79.025299 L 269.7552,78.834926 L 270.2016,78.645503 L 270.648,78.457025 L 271.0944,78.269487 L 271.5408,78.082885 L 271.9872,77.897213 L 272.4336,77.712467 L 272.88,77.528642 L 273.3264,77.345734 L 273.7728,77.163739 L 274.2192,76.982651 L 274.6656,76.802467 L 275.112,76.623181 L 275.5584,76.444789 L 276.0048,76.267287 L 276.4512,76.09067 L 276.8976,75.914935 L 277.344,75.740075 L 277.7904,75.566088 L 278.2368,75.392969 L 278.6832,75.220713 L 279.1296,75.049316 L 279.576,74.878774 L 280.0224,74.709082 L 280.4688,74.540237 L 280.9152,74.372234 L 281.3616,74.205069 L 281.808,74.038738 L 282.2544,73.873236 L 282.7008,73.70856 L 283.1472,73.544705 L 283.5936,73.381667 L 284.04,73.219442 L 284.4864,73.058027 L 284.9328,72.897416 L 285.3792,72.737607 L 285.8256,72.578595 L 286.272,72.420376 L 286.7184,72.262945 L 287.1648,72.1063 L 287.6112,71.950437 L 288.0576,71.79535 L 288.504,71.641038 L 288.9504,71.487494 L 289.3968,71.334717 L 289.8432,71.182702 L 290.2896,71.031445 L 290.736,70.880942 L 291.1824,70.73119 L 291.6288,70.582184 L 292.0752,70.433922 L 292.5216,70.2864 L 292.968,70.139613 L 293.4144,69.993558 L 293.8608,69.848232 L 294.3072,69.70363 L 294.7536,69.55975 L 295.2,69.416587 L 295.6464,69.274138 L 296.0928,69.1324 L 296.5392,68.991369 L 296.9856,68.851041 L 297.432,68.711413 L 297.8784,68.572481 L 298.3248,68.434243 L 298.7712,68.296693 L 299.2176,68.15983 L 299.664,68.02365 L 300.1104,67.888148 L 300.5568,67.753323 L 301.0032,67.61917 L 301.4496,67.485686 L 301.896,67.352867 L 302.3424,67.220712 L 302.7888,67.089215 L 303.2352,66.958374 L 303.6816,66.828186 L 304.128,66.698647 L 304.5744,66.569754 L 305.0208,66.441504 L 305.4672,66.313893 L 305.9136,66.18692 L 306.36,66.060579 L 306.8064,65.934868 L 307.2528,65.809785 L 307.6992,65.685325 L 308.1456,65.561486 L 308.592,65.438265 L 309.0384,65.315658 L 309.4848,65.193663 L 309.9312,65.072276 L 310.3776,64.951495 L 310.824,64.831316 L 311.2704,64.711737 L 311.7168,64.592753 L 312.1632,64.474364 L 312.6096,64.356564 L 313.056,64.239353 L 313.5024,64.122726 L 313.9488,64.00668 L 314.3952,63.891214 L 314.8416,63.776323 L 315.288,63.662005 L 315.7344,63.548258 L 316.1808,63.435077 L 316.6272,63.322461 L 317.0736,63.210407 L 317.52,63.098912 L 317.9664,62.987973 L 318.4128,62.877587 L 318.8592,62.767752 L 319.3056,62.658464 L 319.752,62.549722 L 320.1984,62.441522 L 320.6448,62.333862 L 321.0912,62.226738 L 321.5376,62.120149 L 321.984,62.014092 L 322.4304,61.908563 L 322.8768,61.803561 L 323.3232,61.699082 L 323.7696,61.595125 L 324.216,61.491686 L 324.6624,61.388763 L 325.1088,61.286353 L 325.5552,61.184454 L 326.0016,61.083063 L 326.448,60.982178 L 326.8944,60.881796 L 327.3408,60.781915 L 327.7872,60.682532 L 328.2336,60.583645 L 328.68,60.48525 L 329.1264,60.387347 L 329.5728,60.289932 L 330.0192,60.193003 L 330.4656,60.096557 L 330.912,60.000592 L 331.3584,59.905106 L 331.8048,59.810096 L 332.2512,59.71556 L 332.6976,59.621495 L 333.144,59.5279 L 333.5904,59.434771 L 334.0368,59.342107 L 334.4832,59.249905 L 334.9296,59.158163 L 335.376,59.066878 L 335.8224,58.976049 L 336.2688,58.885673 L 336.7152,58.795747 L 337.1616,58.70627 L 337.608,58.617239 L 338.0544,58.528653 L 338.5008,58.440508 L 338.9472,58.352802 L 339.3936,58.265535 L 339.84,58.178702 L 340.2864,58.092303 L 340.7328,58.006334 L 341.1792,57.920794 L 341.6256,57.835681 L 342.072,57.750992 L 342.5184,57.666726 L 342.9648,57.58288 L 343.4112,57.499452 L 343.8576,57.416441 L 344.304,57.333843 L 344.7504,57.251657 L 345.1968,57.169881 L 345.6432,57.088513 L 346.0896,57.007551 L 346.536,56.926993 L 346.9824,56.846836 L 347.4288,56.767079 L 347.8752,56.687721 L 348.3216,56.608757 L 348.768,56.530188 L 349.2144,56.45201 L 349.6608,56.374223 L 350.1072,56.296823 L 350.5536,56.21981 L 351,56.14318 L 351.4464,56.066933 L 351.8928,55.991066 L 352.3392,55.915577 L 352.7856,55.840465 L 353.232,55.765728 L 353.6784,55.691363 L 354.1248,55.617369 L 354.5712,55.543744 L 355.0176,55.470487 L 355.464,55.397595 L 355.9104,55.325066 L 356.3568,55.252899 L 356.8032,55.181092 L 357.2496,55.109643 L 357.696,55.038551 L 358.1424,54.967813 L 358.5888,54.897428 L 359.0352,54.827394 L 359.4816,54.757709 L 359.928,54.688372 L 360.3744,54.61938 L 360.8208,54.550733 L 361.2672,54.482428 L 361.7136,54.414464 L 362.16,54.346839 L 362.6064,54.279551 L 363.0528,54.212598 L 363.4992,54.14598 L 363.9456,54.079694 L 364.392,54.013738 L 364.8384,53.948111 L 365.2848,53.882812 L 365.7312,53.817838 L 366.1776,53.753189 L 366.624,53.688862 L 367.0704,53.624855 L 367.5168,53.561168 L 367.9632,53.497799 L 368.4096,53.434745 L 368.856,53.372006 L 369.3024,53.30958 L 369.7488,53.247466 L 370.1952,53.185661 L 370.6416,53.124164 L 371.088,53.062974 L 371.5344,53.00209 L 371.9808,52.941509 L 372.4272,52.88123 L 372.8736,52.821252 L 373.32,52.761573 L 373.7664,52.702191 L 374.2128,52.643106 L 374.6592,52.584315 L 375.1056,52.525818 L 375.552,52.467612 L 375.9984,52.409697 L 376.4448,52.352071 L 376.8912,52.294731 L 377.3376,52.237678 L 377.784,52.18091 L 378.2304,52.124425 L 378.6768,52.068221 L 379.1232,52.012298 L 379.5696,51.956653 L 380.016,51.901286 L 380.4624,51.846196 L 380.9088,51.79138 L 381.3552,51.736837 L 381.8016,51.682566 L 382.248,51.628567 L 382.6944,51.574836 L 383.1408,51.521373 L 383.5872,51.468177 L 384.0336,51.415247 L 384.48,51.36258 L 384.9264,51.310176 L 385.3728,51.258034 L 385.8192,51.206151 L 386.2656,51.154527 L 386.712,51.103161 L 387.1584,51.052051 L 387.6048,51.001196 L 388.0512,50.950594 L 388.4976,50.900245 L 388.944,50.850147 L 389.3904,50.800299 L 389.8368,50.7507 L 390.2832,50.701347 L 390.7296,50.652241 L 391.176,50.60338 L 391.6224,50.554763 L 392.0688,50.506388 L 392.5152,50.458254 L 392.9616,50.410361 L 393.408,50.362706 L 393.8544,50.315289 L 394.3008,50.268108 L 394.7472,50.221163 L 395.1936,50.174452 L 395.64,50.127974 L 396.0864,50.081728 L 396.5328,50.035712 L 396.9792,49.989926 L 397.4256,49.944368 L 397.872,49.899037 L 398.3184,49.853933 L 398.7648,49.809053 L 399.2112,49.764398 L 399.6576,49.719965 L 400.104,49.675753 L 400.5504,49.631762 L 400.9968,49.587991 L 401.4432,49.544438 L 401.8896,49.501102 L 402.336,49.457982 L 402.7824,49.415078 L 403.2288,49.372387 L 403.6752,49.329909 L 404.1216,49.287643 L 404.568,49.245588 L 405.0144,49.203742 L 405.4608,49.162106 L 405.9072,49.120677 L 406.3536,49.079454 L 406.8,49.038438 L 407.2464,48.997625 L 407.6928,48.957017 L 408.1392,48.916611 L 408.5856,48.876406 L 409.032,48.836402 L 409.4784,48.796597 L 409.9248,48.756991 L 410.3712,48.717583 L 410.8176,48.678371 L 411.264,48.639354 L 411.7104,48.600533 L 412.1568,48.561904 L 412.6032,48.523469 L 413.0496,48.485225 L 413.496,48.447172 L 413.9424,48.409309 L 414.3888,48.371634 L 414.8352,48.334148 L 415.2816,48.296848 L 415.728,48.259735 L 416.1744,48.222806 L 416.6208,48.186062 L 417.0672,48.149501 L 417.5136,48.113122 L 417.96,48.076925 L 418.4064,48.040908 L 418.8528,48.005071 L 419.2992,47.969413 L 419.7456,47.933933 L 420.192,47.898629 L 420.6384,47.863502 L 421.0848,47.82855 L 421.5312,47.793772 L 421.9776,47.759167 L 422.424,47.724735 L 422.8704,47.690475 L 423.3168,47.656386 L 423.7632,47.622467 L 424.2096,47.588717 L 424.656,47.555135 L 425.1024,47.521721 L 425.5488,47.488473 L 425.9952,47.455392 L 426.4416,47.422475 L 426.888,47.389722 L 427.3344,47.357133 L 427.7808,47.324706 L 428.2272,47.292441 L 428.6736,47.260337 L 429.12,47.228393 L 429.5664,47.196609 L 430.0128,47.164983 L 430.4592,47.133514 L 430.9056,47.102203 L 431.352,47.071048 L 431.7984,47.040048 L 432.2448,47.009203 L 432.6912,46.978511 L 433.1376,46.947973 L 433.584,46.917587 L 434.0304,46.887353 L 434.4768,46.857269 L 434.9232,46.827335 L 435.3696,46.797551 L 435.816,46.767915 L 436.2624,46.738427 L 436.7088,46.709087 L 437.1552,46.679892 L 437.6016,46.650843 L 438.048,46.621939 L 438.4944,46.593179 L 438.9408,46.564563 L 439.3872,46.536089 L 439.8336,46.507757 L 440.28,46.479567 L 440.7264,46.451517 L 441.1728,46.423607 L 441.6192,46.395836 L 442.0656,46.368204 L 442.512,46.34071 L 442.9584,46.313353 L 443.4048,46.286132 L 443.8512,46.259047 L 444.2976,46.232097 L 444.744,46.205281 L 445.1904,46.178599 L 445.6368,46.152051 L 446.0832,46.125634 L 446.5296,46.09935 L 446.976,46.073196 L 447.4224,46.047173 L 447.8688,46.02128 L 448.3152,45.995516 L 448.7616,45.96988 L 449.208,45.944373 L 449.6544,45.918992 L 450.1008,45.893738 L 450.5472,45.86861 L 450.9936,45.843608 L 451.44,45.81873 L 451.8864,45.793976 L 452.3328,45.769345 L 452.7792,45.744838 L 453.2256,45.720452 L 453.672,45.696189 L 454.1184,45.672046 L 454.5648,45.648024 L 455.0112,45.624121 L 455.4576,45.600338 L 455.904,45.576673 L 456.3504,45.553127 L 456.7968,45.529698 L 457.2432,45.506385 L 457.6896,45.483189 L 458.136,45.460109 L 458.5824,45.437144 L 459.0288,45.414293 L 459.4752,45.391556 L 459.9216,45.368933 L 460.368,45.346422 L 460.8144,45.324024 L 461.2608,45.301738 L 461.7072,45.279562 L 462.1536,45.257498 L 462.6,45.235543 L 463.0464,45.213698 L 463.4928,45.191961 L 463.9392,45.170334 L 464.3856,45.148814 L 464.832,45.127401 L 465.2784,45.106095 L 465.7248,45.084895 L 466.1712,45.063802 L 466.6176,45.042813 L 467.064,45.021929 L 467.5104,45.001149 L 467.9568,44.980473 L 468.4032,44.9599 L 468.8496,44.93943 L 469.296,44.919061 L 469.7424,44.898794 L 470.1888,44.878629 L 470.6352,44.858564 L 471.0816,44.838599 L 471.528,44.818733 L 471.9744,44.798967 L 472.4208,44.779299 L 472.8672,44.759729 L 473.3136,44.740257 L 473.76,44.720882 L 474.2064,44.701604 L 474.6528,44.682422 L 475.0992,44.663335 L 475.5456,44.644344 L 475.992,44.625447 L 476.4384,44.606645 L 476.8848,44.587936 L 477.3312,44.569321 L 477.7776,44.550799 L 478.224,44.532369 L 478.6704,44.514031 L 479.1168,44.495784 L 479.5632,44.477628 L 480.0096,44.459563 L 480.456,44.441588 L 480.9024,44.423703 L 481.3488,44.405907 L 481.7952,44.388199 L 482.2416,44.37058 L 482.688,44.353049 L 483.1344,44.335605 L 483.5808,44.318249 L 484.0272,44.300978 L 484.4736,44.283794 L 484.92,44.266696 L 485.3664,44.249683 L 485.8128,44.232755 L 486.2592,44.215911 L 486.7056,44.199151 L 487.152,44.182475 L 487.5984,44.165882 L 488.0448,44.149372 L 488.4912,44.132944 L 488.9376,44.116598 L 489.384,44.100333 L 489.8304,44.08415 L 490.2768,44.068047 L 490.7232,44.052025 L 491.1696,44.036083 L 491.616,44.02022 L 492.0624,44.004436 L 492.5088,43.988731 L 492.9552,43.973104 L 493.4016,43.957556 L 493.848,43.942084 L 494.2944,43.92669 L 494.7408,43.911373 L 495.1872,43.896132 L 495.6336,43.880967 L 496.08,43.865878 L 496.5264,43.850864 L 496.9728,43.835925 L 497.4192,43.82106 L 497.8656,43.80627 L 498.312,43.791553 L 498.7584,43.77691 L 499.2048,43.76234 L 499.6512,43.747842 L 500.0976,43.733417 L 500.544,43.719064 L 500.9904,43.704782 L 501.4368,43.690571 L 501.8832,43.676432 L 502.3296,43.662363 L 502.776,43.648364 L 503.2224,43.634434 L 503.6688,43.620575 L 504.1152,43.606784 L 504.5616,43.593063 L 505.008,43.579409 L 505.4544,43.565824 L 505.9008,43.552307 L 506.3472,43.538857 L 506.7936,43.525474 L 507.24,43.512157 L 507.6864,43.498908 L 508.1328,43.485724 L 508.5792,43.472606 L 509.0256,43.459553 L 509.472,43.446566 L 509.9184,43.433643 L 510.3648,43.420785 L 510.8112,43.407991 L 511.2576,43.395261 L 511.704,43.382594 L 512.1504,43.36999 L 512.5968,43.35745 L 513.0432,43.344972 L 513.4896,43.332556 L 513.936,43.320202 L 514.3824,43.307909 L 514.8288,43.295678 L 515.2752,43.283508 L 515.7216,43.271399 L 516.168,43.25935 L 516.6144,43.247361 L 517.0608,43.235432 L 517.5072,43.223562 L 517.9536,43.211752 L 518.4,43.2"
       style="fill:none;stroke:#0000ff;stroke-width:3;stroke-linecap:square;stroke-linejoin:miter;stroke-miterlimit:4;stroke-dasharray:none"
       id="path108" />
    <polygon
       points="72,388.8 72,43.2 518.4,43.2 518.4,388.8 72,388.8 "
       style="fill:none;stroke:#000000;stroke-width:3;stroke-linecap:square;stroke-linejoin:miter;stroke-miterlimit:4;stroke-dasharray:none"
       id="polygon5022" />
  </g>
</svg>
